<?xml version="1.0" encoding="utf-8"?>
<!-- Generator: Adobe Illustrator 16.0.0, SVG Export Plug-In . SVG Version: 6.00 Build 0)  -->
<!DOCTYPE svg PUBLIC "-//W3C//DTD SVG 1.1//EN" "http://www.w3.org/Graphics/SVG/1.1/DTD/svg11.dtd">
<svg version="1.1" id="Layer_1" xmlns="http://www.w3.org/2000/svg" xmlns:xlink="http://www.w3.org/1999/xlink" x="0px" y="0px"
	 width="48px" height="48px" viewBox="0 0 48 48" enable-background="new 0 0 48 48" xml:space="preserve">
<g transform="translate(-1598 -859)">
	<rect x="1598" y="859" display="none" width="48" height="48"/>
	<path fill="#3476FF" d="M1613,880c-1.657,0-3,1.343-3,3c0,1.656,1.343,3,3,3s3-1.344,3-3
		C1615.995,881.345,1614.655,880.005,1613,880z M1631,880c-1.656,0-3,1.343-3,3c0,1.656,1.344,3,3,3s3-1.344,3-3
		C1633.995,881.345,1632.654,880.005,1631,880z M1622,880c-1.657,0-3,1.343-3,3c0,1.656,1.343,3,3,3c1.656,0,3-1.344,3-3
		C1624.995,881.345,1623.654,880.005,1622,880z"/>
</g>
</svg>
